PathFileType	4	(X/Y/Z)	Walk4.trc
DataRate	CameraRate	NumFrames	NumMarkers	Units	OrigDataRate	OrigDataStartFrame	OrigNumFrames
200.000000	200.000000	4	59	mm	200.000000	322	559
Frame#	Times		LFHD		C7		CLAV		STRN		RBack		RASI		RACR1		RUA1		RElbow		RFA1		RWRU		RCAR		LACR1		LUA1		LFA1		LWRR		LCAR		RTH1		RTH3		RTH2		RLFC		LTH1		LTH3		LTH2		LTH4		LLFC		LTB1		LTB3		LTB4		LMT1		LToe		T10		RTH4		LMMAL		LTB2		LMT5		RFHD		RPSI		RWRR		RToe		LLMAL		LElbow		LPSI		RBHD		RTB1		LBHD		LWRU		LElbowM		RTB2		RTB4		RTB3		RMT1		LASI		RMMAL		RLMAL		RMT5		RCAL		LCAL		RElbowM
			X1	Y1	Z1	X2	Y2	Z2	X3	Y3	Z3	X4	Y4	Z4	X5	Y5	Z5	X6	Y6	Z6	X7	Y7	Z7	X8	Y8	Z8	X9	Y9	Z9	X10	Y10	Z10	X11	Y11	Z11	X12	Y12	Z12	X13	Y13	Z13	X14	Y14	Z14	X15	Y15	Z15	X16	Y16	Z16	X17	Y17	Z17	X18	Y18	Z18	X19	Y19	Z19	X20	Y20	Z20	X21	Y21	Z21	X22	Y22	Z22	X23	Y23	Z23	X24	Y24	Z24	X25	Y25	Z25	X26	Y26	Z26	X27	Y27	Z27	X28	Y28	Z28	X29	Y29	Z29	X30	Y30	Z30	X31	Y31	Z31	X32	Y32	Z32	X33	Y33	Z33	X34	Y34	Z34	X35	Y35	Z35	X36	Y36	Z36	X37	Y37	Z37	X38	Y38	Z38	X39	Y39	Z39	X40	Y40	Z40	X41	Y41	Z41	X42	Y42	Z42	X43	Y43	Z43	X44	Y44	Z44	X45	Y45	Z45	X46	Y46	Z46	X47	Y47	Z47	X48	Y48	Z48	X49	Y49	Z49	X50	Y50	Z50	X51	Y51	Z51	X52	Y52	Z52	X53	Y53	Z53	X54	Y54	Z54	X55	Y55	Z55	X56	Y56	Z56	X57	Y57	Z57	X58	Y58	Z58	X59	Y59	Z59

322	1.61	-146.78	1587	-72.473	-319.94	1425.4	-36.511	-196.08	1346.9	-44.547	-119.21	1123.5	-41.359	-363.54	1320.9	59.777	-166.36	958.49	105.2	-243.17	1358.7	131.05	-287.04	1150.8	192.96	-320.99	1047.7	215.1	-270.64	902.79	227.11	-307.51	796.16	242.6	-264.15	751.89	240.33	-261.59	1362.2	-211.18	-259.35	1154.3	-262.56	-185.29	923.79	-273.63	-149.42	814.75	-226.98	-133.59	774.16	-269.22	-221.93	761.42	161.83	-149.1	589.8	125.4	-123.47	709.07	122.76	-125.89	496.64	112.45	-288	732.02	-183.46	-282.46	550.86	-141.25	-213.21	642.52	-138.55	-286.95	636.53	-160.51	-294	442.51	-124.86	-289.6	342.04	-42.42	-358.67	167.34	-37.985	-322.67	252.3	-43.921	-284.75	38.581	-48.669	-238.42	28.98	-79.659	-354.42	1140.4	-33.836	-185.27	675.24	143.45	-409.04	77.844	-2.0617	-342.87	258.98	-113.01	-326.92	22.333	-125.45	-139.43	1587.6	0.99569	-382.91	985.51	43.539	-255.07	796.96	190.41	-31.264	46.4	113.46	-428.75	67.97	-82.888	-262.24	1033.7	-277.55	-388.24	981.08	-70.333	-310.74	1554	38.865	-98.509	372.15	47.788	-317.7	1563	-88.186	-188.24	802.66	-286.69	-293.44	1017.1	-216.44	-146.44	291.84	113.13	-123.93	282.93	46.33	-148.28	194.6	44.867	-59.549	55.6	75.372	-177.32	938.37	-162.5	-179.07	109.95	14.595	-215.01	97.438	87.974	-117.03	33.632	132.89	-253.5	66.315	32.475	-480.63	39.181	-26.639	-333.98	1027.2	131.91
323	1.615	-141.15	1586.3	-72.086	-314.48	1424.8	-36.179	-190.6	1346.3	-44.386	-113.68	1122.8	-41.554	-358.03	1320.2	59.992	-160.71	957.55	105.12	-237.63	1357.8	131.27	-282.03	1150.1	193.19	-316.08	1047.1	215.3	-266.28	902	227.5	-303.58	795.51	243.09	-260.45	750.99	240.72	-256.32	1361.7	-210.95	-253.55	1153.9	-262.67	-177.59	924.13	-274.09	-140.22	815.67	-227.32	-124.13	775.16	-269.52	-216.24	760.94	162.26	-143.46	589.32	125.66	-117.95	708.61	122.73	-120.21	495.6	112.89	-283.58	731.34	-183.26	-278.74	550.19	-141.15	-209.15	641.54	-138.44	-282.89	635.87	-160.4	-290.84	441.86	-124.73	-287.19	341.32	-42.283	-357.67	167.17	-37.877	-320.97	251.83	-43.814	-284.74	38.554	-48.707	-238.37	28.893	-79.832	-348.87	1139.7	-33.602	-179.58	674.75	143.9	-408.65	78.093	-1.9818	-341.05	258.65	-112.92	-326.91	22.328	-125.42	-133.8	1586.8	1.4169	-377.17	984.93	43.912	-251.19	796.04	190.81	-11.447	47.952	113.63	-428.45	68.341	-82.866	-255.63	1033.4	-277.75	-382.83	980.51	-69.934	-305.13	1553.3	39.256	-89.499	371.8	47.989	-312.1	1562.5	-87.789	-179.26	802.98	-286.74	-286.39	1016.5	-216.49	-134.69	289.95	113.27	-111.91	281.82	46.492	-133.26	192.76	44.944	-39.998	56.535	75.552	-172.34	937.5	-162.58	-161.2	107.19	14.546	-196.78	93.442	87.909	-96.891	32.709	133.08	-234.24	61.198	32.317	-480.5	39.796	-26.56	-328.88	1026.5	132.1
324	1.62	-135.52	1585.5	-71.678	-308.99	1424.1	-35.826	-185.09	1345.6	-44.205	-108.12	1122.1	-41.732	-352.49	1319.4	60.232	-155.05	956.53	105.08	-232.05	1357	131.51	-276.95	1149.4	193.43	-311.11	1046.4	215.54	-261.85	901.18	227.9	-299.55	794.84	243.6	-256.67	750.06	241.12	-251.02	1361.3	-210.69	-247.78	1153.5	-262.75	-169.92	924.43	-274.53	-131.05	816.58	-227.66	-114.75	776.14	-269.84	-210.6	760.38	162.67	-137.97	588.71	125.97	-112.52	708	122.7	-114.67	494.46	113.35	-279.14	730.65	-183.06	-274.98	549.5	-141.06	-205.05	640.56	-138.34	-278.81	635.2	-160.31	-287.65	441.18	-124.61	-284.75	340.59	-42.157	-356.65	167.01	-37.772	-319.25	251.36	-43.713	-284.72	38.526	-48.745	-238.31	28.801	-80.006	-343.3	1139	-33.338	-173.98	674.16	144.38	-408.24	78.364	-1.8981	-339.21	258.32	-112.84	-326.89	22.318	-125.38	-128.17	1585.9	1.8537	-371.39	984.31	44.308	-247.23	795.1	191.23	8.2771	49.804	113.64	-428.14	68.729	-82.838	-249.03	1033	-277.93	-377.39	979.91	-69.51	-299.51	1552.7	39.674	-80.629	371.45	48.194	-306.5	1562	-87.363	-170.34	803.29	-286.76	-279.35	1015.8	-216.5	-122.99	288.13	113.43	-99.993	280.8	46.665	-118.31	191.1	45.03	-20.557	57.741	75.606	-167.37	936.62	-162.66	-143.38	104.71	14.508	-178.5	89.706	87.866	-76.752	32.089	133.18	-214.92	56.393	32.201	-480.36	40.441	-26.469	-323.76	1025.8	132.34
325	1.625	-129.9	1584.7	-71.249	-303.49	1423.3	-35.449	-179.56	1344.9	-44.003	-102.56	1121.3	-41.889	-346.92	1318.6	60.499	-149.37	955.43	105.08	-226.44	1356.1	131.77	-271.81	1148.6	193.71	-306.08	1045.7	215.81	-257.34	900.34	228.31	-295.43	794.14	244.16	-252.79	749.11	241.54	-245.7	1360.7	-210.42	-242.03	1153.1	-262.8	-162.29	924.71	-274.96	-121.91	817.47	-228.01	-105.43	777.1	-270.17	-205	759.75	163.07	-132.64	587.97	126.32	-107.18	707.23	122.66	-109.26	493.2	113.84	-274.69	729.95	-182.86	-271.17	548.8	-140.99	-200.92	639.56	-138.25	-274.7	634.54	-160.23	-284.43	440.5	-124.51	-282.29	339.85	-42.042	-355.61	166.86	-37.669	-317.51	250.88	-43.619	-284.7	38.496	-48.783	-238.24	28.705	-80.182	-337.7	1138.2	-33.045	-168.47	673.47	144.88	-407.83	78.656	-1.8101	-337.36	257.99	-112.76	-326.89	22.303	-125.34	-122.54	1585.1	2.306	-365.59	983.65	44.728	-243.2	794.15	191.66	27.868	51.963	113.5	-427.83	69.135	-82.802	-242.44	1032.6	-278.07	-371.93	979.27	-69.061	-293.89	1552	40.12	-71.901	371.1	48.404	-300.91	1561.3	-86.907	-161.49	803.57	-286.76	-272.33	1015.1	-216.47	-111.37	286.4	113.6	-88.183	279.88	46.848	-103.44	189.62	45.125	-1.2664	59.222	75.536	-162.39	935.73	-162.76	-125.63	102.5	14.481	-160.2	86.25	87.847	-56.658	31.782	133.19	-195.59	51.915	32.128	-480.21	41.117	-26.368	-318.62	1025	132.6
